<svg width="24" height="24" viewBox="0 0 24 24" fill="none" xmlns="http://www.w3.org/2000/svg">
<path d="M0 5C0 2.23858 2.23858 0 5 0H19C21.7614 0 24 2.23858 24 5V19C24 21.7614 21.7614 24 19 24H5C2.23858 24 0 21.7614 0 19V5Z" fill="#CFE3FC"/>
<path d="M11.6 12.0002C10.3911 12.0002 9.34425 11.5666 8.48892 10.7111C7.63359 9.85574 7.2 8.80915 7.2 7.60006C7.2 6.39138 7.63359 5.34465 8.48906 4.48902C9.34453 3.6338 10.3912 3.2002 11.6 3.2002C12.8091 3.2002 13.8556 3.6338 14.7109 4.48916C15.5663 5.34451 16 6.39124 16 7.60006C16 8.80915 15.5663 9.85588 14.7108 10.7112C13.8553 11.5665 12.8086 12.0002 11.6 12.0002Z" fill="white"/>
<path d="M4.03703 17.3093C4.06163 16.9475 4.11139 16.5528 4.18465 16.136C4.25859 15.716 4.35381 15.3191 4.46778 14.9562C4.58552 14.5812 4.74564 14.2109 4.94357 13.856C5.14901 13.4876 5.39032 13.1668 5.66108 12.9029C5.94422 12.6268 6.29088 12.4048 6.69175 12.2428C7.09124 12.0817 7.53394 12.0001 8.00751 12.0001C8.19349 12.0001 8.37335 12.0779 8.72071 12.3084C8.93449 12.4505 9.18455 12.6149 9.46366 12.7966C9.70231 12.9516 10.0256 13.0969 10.425 13.2283C10.8146 13.3568 11.2102 13.422 11.6006 13.422C11.9911 13.422 12.3865 13.3568 12.7765 13.2283C13.1755 13.097 13.4988 12.9518 13.7372 12.7968C14.0136 12.6167 14.2638 12.4524 14.4808 12.3083C14.8277 12.0778 15.0077 12 15.1937 12C15.6674 12 16.11 12.0817 16.5093 12.243C16.9099 12.4046 17.2567 12.6266 17.5401 12.903C17.8108 13.1671 18.0522 13.4877 18.2574 13.856C18.4552 14.2109 18.6153 14.5811 18.7332 14.9564C18.847 15.3192 18.9422 15.716 19.0162 16.136C19.0894 16.5522 19.1392 16.9471 19.1638 17.3098C19.188 17.6651 19.2002 18.0339 19.2002 18.4063C19.2002 19.3757 18.8979 20.1604 18.3017 20.7392C17.7129 21.3103 16.9338 21.6 15.9864 21.6H7.21397C6.26656 21.6 5.48775 21.3104 4.89882 20.7392C4.30252 20.1609 4.00019 19.376 4.00019 18.4062C4.00033 18.032 4.0127 17.663 4.03703 17.3093Z" fill="white"/>
<rect x="18.4004" y="1.6001" width="1.6" height="6.4" rx="0.8" fill="#70AAF5"/>
<rect x="16" y="4" width="6.4" height="1.6" rx="0.8" fill="#70AAF5"/>
</svg>
